<svg width="65" height="17" fill="none" xmlns="http://www.w3.org/2000/svg"><g clip-path="url(#clip0)"><g filter="url(#filter0_d)"><path fill="#fff" d="M-1063-389H137v933h-1200z"/></g><path fill="#fff" d="M-1063-116H137v540h-1200z"/><path d="M8.002 0l2.126 6.494h6.877l-5.564 4.012L13.566 17l-5.564-4.013L2.438 17l2.126-6.494L-1 6.494h6.878L8.002 0zM33.002 0l2.126 6.494h6.877l-5.564 4.012L38.566 17l-5.564-4.013L27.438 17l2.126-6.494L24 6.494h6.878L33.002 0zM56.002 0l2.126 6.494h6.877l-5.564 4.012L61.566 17l-5.564-4.013L50.438 17l2.126-6.494L47 6.494h6.878L56.002 0z" fill="#81B3D2"/></g><defs><clipPath id="clip0"><path fill="#fff" transform="translate(-1103 -389)" d="M0 0h1280v933H0z"/></clipPath><filter id="filter0_d" x="-1078" y="-399" width="1230" height="963" filterUnits="userSpaceOnUse" color-interpolation-filters="sRGB"><feFlood flood-opacity="0" result="BackgroundImageFix"/><feColorMatrix in="SourceAlpha" values="0 0 0 0 0 0 0 0 0 0 0 0 0 0 0 0 0 0 127 0"/><feOffset dy="5"/><feGaussianBlur stdDeviation="7.5"/><feColorMatrix values="0 0 0 0 0 0 0 0 0 0.00392157 0 0 0 0 0.00392157 0 0 0 0.2 0"/><feBlend in2="BackgroundImageFix" result="effect1_dropShadow"/><feBlend in="SourceGraphic" in2="effect1_dropShadow" result="shape"/></filter></defs></svg>