<svg width="115" height="17" fill="none" xmlns="http://www.w3.org/2000/svg"><g clip-path="url(#clip0)"><g filter="url(#filter0_d)"><path fill="#fff" d="M-1013-389H187v933h-1200z"/></g><path fill="#fff" d="M-1013-116H187v540h-1200z"/><path d="M34.002 0l2.126 6.494h6.877l-5.564 4.012L39.566 17l-5.564-4.013L28.438 17l2.126-6.494L25 6.494h6.878L34.002 0zM58.002 0l2.126 6.494h6.877l-5.564 4.012L63.566 17l-5.564-4.013L52.438 17l2.126-6.494L49 6.494h6.878L58.002 0zM83.002 0l2.126 6.494h6.877l-5.564 4.012L88.566 17l-5.564-4.013L77.438 17l2.126-6.494L74 6.494h6.878L83.002 0zM106.002 0l2.126 6.494h6.877l-5.564 4.012L111.566 17l-5.564-4.013L100.438 17l2.126-6.494L97 6.494h6.878L106.002 0z" fill="#81B3D2"/><g clip-path="url(#clip1)"><g filter="url(#filter1_d)"><path d="M-1037-389H163v933h-1200v-933z" fill="#fff"/></g><path d="M-1037-116H163v540h-1200v-540z" fill="#fff"/><path d="M10.002 0l2.126 6.494h6.877l-5.564 4.012L15.566 17l-5.564-4.013L4.438 17l2.126-6.494L1 6.494h6.878L10.002 0z" fill="#81B3D2"/></g></g><defs><clipPath id="clip0"><path fill="#fff" transform="translate(-1053 -389)" d="M0 0h1280v933H0z"/></clipPath><clipPath id="clip1"><path fill="#fff" transform="translate(-2)" d="M0 0h24v17H0z"/></clipPath><filter id="filter0_d" x="-1028" y="-399" width="1230" height="963" filterUnits="userSpaceOnUse" color-interpolation-filters="sRGB"><feFlood flood-opacity="0" result="BackgroundImageFix"/><feColorMatrix in="SourceAlpha" values="0 0 0 0 0 0 0 0 0 0 0 0 0 0 0 0 0 0 127 0"/><feOffset dy="5"/><feGaussianBlur stdDeviation="7.5"/><feColorMatrix values="0 0 0 0 0 0 0 0 0 0.00392157 0 0 0 0 0.00392157 0 0 0 0.2 0"/><feBlend in2="BackgroundImageFix" result="effect1_dropShadow"/><feBlend in="SourceGraphic" in2="effect1_dropShadow" result="shape"/></filter><filter id="filter1_d" x="-1052" y="-399" width="1230" height="963" filterUnits="userSpaceOnUse" color-interpolation-filters="sRGB"><feFlood flood-opacity="0" result="BackgroundImageFix"/><feColorMatrix in="SourceAlpha" values="0 0 0 0 0 0 0 0 0 0 0 0 0 0 0 0 0 0 127 0"/><feOffset dy="5"/><feGaussianBlur stdDeviation="7.5"/><feColorMatrix values="0 0 0 0 0 0 0 0 0 0.00392157 0 0 0 0 0.00392157 0 0 0 0.2 0"/><feBlend in2="BackgroundImageFix" result="effect1_dropShadow"/><feBlend in="SourceGraphic" in2="effect1_dropShadow" result="shape"/></filter></defs></svg>